<svg width="888" height="340" xmlns="http://www.w3.org/2000/svg" xmlns:xlink="http://www.w3.org/1999/xlink" overflow="hidden"><defs><clipPath id="clip0"><rect x="0" y="0" width="888" height="340"/></clipPath></defs><g clip-path="url(#clip0)"><rect x="0" y="0" width="888" height="339.897" fill="#FFF5DE"/><path d="M329.711 85.4446C412.846 22.3439 531.409 38.5646 594.529 121.675 594.894 122.155 595.256 122.637 595.616 123.12" stroke="#003E51" stroke-width="3.99925" stroke-miterlimit="8" stroke-dasharray="3.99925 3.99925" fill="none" fill-rule="evenodd"/><path d="M681.632 188.654 677.849 187.357 679.147 183.575 682.93 184.872ZM673.999 185.79 670.332 184.195 671.928 180.529 675.595 182.124ZM666.665 182.6 662.998 181.005 664.594 177.338 668.261 178.934ZM659.317 179.071 655.789 177.19 657.671 173.662 661.2 175.544ZM652.26 175.308 649.288 173.723 648.623 173.297 650.78 169.93 651.377 170.313 651.24 170.233 654.143 171.78ZM645.255 171.142 641.887 168.986 644.043 165.619 647.411 167.775ZM638.519 166.83 636.513 165.546 635.098 164.473 637.515 161.287 638.866 162.312 638.736 162.222 640.675 163.463ZM631.911 162.057 628.725 159.641 631.142 156.455 634.328 158.871ZM625.539 157.224 624.429 156.383 622.365 154.543 625.028 151.559 627.032 153.347 626.909 153.246 627.956 154.039ZM619.381 151.881 616.397 149.219 619.059 146.236 622.043 148.898ZM613.413 146.558 613.097 146.276 610.516 143.576 613.408 140.814 615.933 143.457 615.819 143.346 616.075 143.575ZM607.753 140.685 604.991 137.795 607.882 135.033 610.645 137.924ZM602.157 134.753 599.635 131.65 602.738 129.129 605.261 132.231ZM597.112 128.548 594.59 125.446 597.693 122.924 600.216 126.026ZM682.336 180.442 691.738 190.007 678.443 191.787Z" fill="#003E51"/><path d="M331.289 84.504C304.45 104.875 272.65 117.702 239.185 121.657" stroke="#003E51" stroke-width="3.99925" stroke-miterlimit="8" stroke-dasharray="3.99925 3.99925" fill="none" fill-rule="evenodd"/><path d="M320.514 114.334C403.429 51.4003 521.678 67.5781 584.631 150.468 584.995 150.947 585.356 151.428 585.715 151.91" stroke="#003E51" stroke-width="3.99925" stroke-miterlimit="8" fill="none" fill-rule="evenodd"/><path d="M851.289 188.473C768.154 251.573 649.59 235.353 586.47 152.243 586.106 151.762 585.743 151.28 585.383 150.797" stroke="#003E51" stroke-width="3.99925" stroke-miterlimit="8" fill="none" fill-rule="evenodd"/><path d="M322.289 112.495C239.154 175.596 120.591 159.376 57.4707 76.2656 57.106 75.7854 56.7437 75.3035 56.3836 74.8198" stroke="#003E51" stroke-width="3.99925" stroke-miterlimit="8" fill="none" fill-rule="evenodd"/><path d="M190 133.46C190 123.798 197.835 115.965 207.5 115.965 217.165 115.965 225 123.798 225 133.46 225 143.122 217.165 150.954 207.5 150.954 197.835 150.954 190 143.122 190 133.46Z" stroke="#003E51" stroke-width="1.99962" stroke-miterlimit="8" stroke-dasharray="7.9985 5.99887" fill="none" fill-rule="evenodd"/><path d="M719.5 209.937C719.5 200.274 727.335 192.442 737 192.442 746.665 192.442 754.5 200.274 754.5 209.937 754.5 219.599 746.665 227.431 737 227.431 727.335 227.431 719.5 219.599 719.5 209.937Z" stroke="#003E51" stroke-width="2.99944" stroke-miterlimit="8" fill="#9AB7C1" fill-rule="evenodd"/><path d="M0 0 0.354472 101.649" stroke="#003E51" stroke-width="2.99853" stroke-miterlimit="8" fill="none" fill-rule="evenodd" transform="matrix(-1.0003 0 0 1 444.855 210.436)"/><path d="M66.5 293.411 860.061 293.411" stroke="#003E51" stroke-width="2.99944" stroke-miterlimit="8" fill="none" fill-rule="evenodd"/><path d="M66.5 274.417 66.5001 312.194" stroke="#003E51" stroke-width="2.99944" stroke-miterlimit="8" fill="none" fill-rule="evenodd"/><path d="M860.5 274.417 860.5 312.194" stroke="#003E51" stroke-width="2.99944" stroke-miterlimit="8" fill="none" fill-rule="evenodd"/><text fill="#003E51" font-family="Roboto Slab,Roboto Slab_MSFontService,sans-serif" font-weight="400" font-size="31.9843" transform="matrix(1 0 0 0.999698 340.957 197)">Tipping Point</text><path d="M444.5 75.4771 444.5 159.971" stroke="#003E51" stroke-width="2.99944" stroke-miterlimit="8" fill="none" fill-rule="evenodd"/><text fill="#003E51" font-family="Roboto Slab,Roboto Slab_MSFontService,sans-serif" font-weight="400" font-size="31.9843" transform="matrix(1 0 0 0.999698 156.308 328)">Stable State 1</text><text fill="#003E51" font-family="Roboto Slab,Roboto Slab_MSFontService,sans-serif" font-weight="400" font-size="31.9843" transform="matrix(1 0 0 0.999698 551.018 329)">Stable State 2</text><text fill="#003E51" font-family="Roboto Slab,Roboto Slab_MSFontService,sans-serif" font-weight="400" font-size="23.9882" transform="matrix(0.994412 -0.105509 0.105605 0.994111 312.076 49)">Shift (disturbance)</text></g></svg>